P1
# See: https://en.wikipedia.org/wiki/Netpbm_format#PBM_example
25 6
1 1 1 0 0 1 0 0 0 0 0 1 1 0 0 1 0 0 1 0 1 1 1 1 0
1 0 0 1 0 1 0 0 0 0 1 0 0 1 0 1 0 1 0 0 1 0 0 0 0
1 0 0 1 0 1 0 0 0 0 1 0 0 1 0 1 1 0 0 0 1 1 1 0 0
1 1 1 0 0 1 0 0 0 0 1 1 1 1 0 1 0 1 0 0 1 0 0 0 0
1 0 1 0 0 1 0 0 0 0 1 0 0 1 0 1 0 1 0 0 1 0 0 0 0
1 0 0 1 0 1 1 1 1 0 1 0 0 1 0 1 0 0 1 0 1 0 0 0 0
